<mxfile host="app.diagrams.net" agent="Mozilla/5.0 (Macintosh; Intel Mac OS X 10_15_7) AppleWebKit/537.36 (KHTML, like Gecko) Chrome/141.0.0.0 Safari/537.36" version="28.2.8">
  <diagram name="Page-1" id="hBKtreTGu6Y4IyfRa3Ap">
    <mxGraphModel dx="450" dy="643" grid="1" gridSize="10" guides="1" tooltips="1" connect="1" arrows="1" fold="1" page="1" pageScale="1" pageWidth="1100" pageHeight="850" math="1" shadow="0">
      <root>
        <mxCell id="0" />
        <mxCell id="1" parent="0" />
        <mxCell id="O4QoBnIaxKIivPkDnnrw-3" value="" style="rounded=1;whiteSpace=wrap;html=1;arcSize=7;fillColor=#bac8d3;strokeColor=#23445d;" vertex="1" parent="1">
          <mxGeometry x="50" y="260" width="360" height="180" as="geometry" />
        </mxCell>
        <mxCell id="6S6WEjJGhrRsYoMHBRc7-2" style="edgeStyle=orthogonalEdgeStyle;rounded=0;orthogonalLoop=1;jettySize=auto;html=1;exitX=0;exitY=0.5;exitDx=0;exitDy=0;startArrow=none;startFill=0;endArrow=none;endFill=0;" parent="1" source="6S6WEjJGhrRsYoMHBRc7-1" edge="1">
          <mxGeometry relative="1" as="geometry">
            <mxPoint x="40" y="340" as="targetPoint" />
          </mxGeometry>
        </mxCell>
        <mxCell id="6S6WEjJGhrRsYoMHBRc7-5" value="" style="edgeStyle=orthogonalEdgeStyle;rounded=0;orthogonalLoop=1;jettySize=auto;html=1;" parent="1" source="6S6WEjJGhrRsYoMHBRc7-1" target="6S6WEjJGhrRsYoMHBRc7-4" edge="1">
          <mxGeometry relative="1" as="geometry" />
        </mxCell>
        <mxCell id="6S6WEjJGhrRsYoMHBRc7-1" value="fxp&lt;br&gt;sQ4.5" style="rounded=0;whiteSpace=wrap;html=1;" parent="1" vertex="1">
          <mxGeometry x="80" y="320" width="60" height="40" as="geometry" />
        </mxCell>
        <mxCell id="6S6WEjJGhrRsYoMHBRc7-6" style="edgeStyle=orthogonalEdgeStyle;rounded=0;orthogonalLoop=1;jettySize=auto;html=1;entryX=0.5;entryY=1;entryDx=0;entryDy=0;" parent="1" source="6S6WEjJGhrRsYoMHBRc7-3" target="6S6WEjJGhrRsYoMHBRc7-4" edge="1">
          <mxGeometry relative="1" as="geometry" />
        </mxCell>
        <mxCell id="6S6WEjJGhrRsYoMHBRc7-9" style="edgeStyle=orthogonalEdgeStyle;rounded=0;orthogonalLoop=1;jettySize=auto;html=1;startArrow=classic;startFill=1;endArrow=oval;endFill=1;exitX=1;exitY=0.5;exitDx=0;exitDy=0;" parent="1" source="6S6WEjJGhrRsYoMHBRc7-3" edge="1">
          <mxGeometry relative="1" as="geometry">
            <mxPoint x="390" y="340" as="targetPoint" />
            <mxPoint x="380" y="400" as="sourcePoint" />
            <Array as="points">
              <mxPoint x="390" y="400" />
            </Array>
          </mxGeometry>
        </mxCell>
        <mxCell id="6S6WEjJGhrRsYoMHBRc7-3" value="`z^{-1}`" style="rounded=0;whiteSpace=wrap;html=1;" parent="1" vertex="1">
          <mxGeometry x="210" y="380" width="50" height="40" as="geometry" />
        </mxCell>
        <mxCell id="6S6WEjJGhrRsYoMHBRc7-7" style="edgeStyle=orthogonalEdgeStyle;rounded=0;orthogonalLoop=1;jettySize=auto;html=1;exitX=1;exitY=0.5;exitDx=0;exitDy=0;" parent="1" source="O4QoBnIaxKIivPkDnnrw-1" edge="1">
          <mxGeometry relative="1" as="geometry">
            <mxPoint x="430" y="340" as="targetPoint" />
          </mxGeometry>
        </mxCell>
        <mxCell id="6S6WEjJGhrRsYoMHBRc7-4" value="&lt;div align=&quot;center&quot;&gt;+&lt;/div&gt;" style="ellipse;whiteSpace=wrap;html=1;aspect=fixed;align=center;" parent="1" vertex="1">
          <mxGeometry x="220" y="325" width="30" height="30" as="geometry" />
        </mxCell>
        <mxCell id="6S6WEjJGhrRsYoMHBRc7-11" value="x" style="text;html=1;align=center;verticalAlign=middle;resizable=0;points=[];autosize=1;strokeColor=none;fillColor=none;" parent="1" vertex="1">
          <mxGeometry x="50" y="315" width="30" height="30" as="geometry" />
        </mxCell>
        <mxCell id="6S6WEjJGhrRsYoMHBRc7-14" value="y_fxp&lt;div&gt;sQ7.5&lt;/div&gt;" style="text;html=1;align=center;verticalAlign=middle;resizable=0;points=[];autosize=1;strokeColor=none;fillColor=none;" parent="1" vertex="1">
          <mxGeometry x="330" y="305" width="60" height="40" as="geometry" />
        </mxCell>
        <mxCell id="6S6WEjJGhrRsYoMHBRc7-24" value="x_fxp&lt;br&gt;sQ4.5" style="text;html=1;align=center;verticalAlign=middle;resizable=0;points=[];autosize=1;strokeColor=none;fillColor=none;" parent="1" vertex="1">
          <mxGeometry x="147" y="300" width="60" height="40" as="geometry" />
        </mxCell>
        <mxCell id="O4QoBnIaxKIivPkDnnrw-2" value="" style="edgeStyle=orthogonalEdgeStyle;rounded=0;orthogonalLoop=1;jettySize=auto;html=1;exitX=1;exitY=0.5;exitDx=0;exitDy=0;endArrow=none;endFill=0;" edge="1" parent="1" source="6S6WEjJGhrRsYoMHBRc7-4" target="O4QoBnIaxKIivPkDnnrw-1">
          <mxGeometry relative="1" as="geometry">
            <mxPoint x="440" y="340" as="targetPoint" />
            <mxPoint x="270" y="340" as="sourcePoint" />
          </mxGeometry>
        </mxCell>
        <mxCell id="O4QoBnIaxKIivPkDnnrw-1" value="fxp&lt;br&gt;sQ7.5" style="rounded=0;whiteSpace=wrap;html=1;" vertex="1" parent="1">
          <mxGeometry x="270" y="320" width="60" height="40" as="geometry" />
        </mxCell>
        <mxCell id="O4QoBnIaxKIivPkDnnrw-4" value="&lt;b&gt;def integrator&lt;/b&gt;" style="text;html=1;whiteSpace=wrap;strokeColor=none;fillColor=none;align=center;verticalAlign=middle;rounded=0;" vertex="1" parent="1">
          <mxGeometry x="67" y="258" width="80" height="30" as="geometry" />
        </mxCell>
      </root>
    </mxGraphModel>
  </diagram>
</mxfile>
